<svg width="34" height="28" viewBox="0 0 34 28" fill="none" xmlns="http://www.w3.org/2000/svg">
<g opacity="0.7">
<g clip-path="url(#clip0_3_73)">
<path fill-rule="evenodd" clip-rule="evenodd" d="M20.8889 12.3333C20.8889 15.4015 18.4016 17.8889 15.3333 17.8889C12.2651 17.8889 9.77778 15.4015 9.77778 12.3333C9.77778 9.26508 12.2651 6.77775 15.3333 6.77775C18.4016 6.77775 20.8889 9.26508 20.8889 12.3333ZM8.11111 12.3333C8.11111 16.3221 11.3446 19.5555 15.3333 19.5555C16.9772 19.5555 18.4928 19.0063 19.7067 18.0814L24.234 22.6052C24.6133 22.9842 25.2274 22.9833 25.6057 22.6033C25.984 22.2233 25.9832 21.608 25.6039 21.229L21.0799 16.7085C22.0058 15.4944 22.5556 13.9781 22.5556 12.3333C22.5556 8.34453 19.3221 5.11108 15.3333 5.11108C11.3446 5.11108 8.11111 8.34453 8.11111 12.3333Z" fill="white"/>
</g>
</g>
<defs>
<clipPath id="clip0_3_73">
<rect width="20" height="20" fill="white" transform="translate(7 4)"/>
</clipPath>
</defs>
</svg>
