<svg width="118" height="40" viewBox="0 0 118 40" fill="none" xmlns="http://www.w3.org/2000/svg">
<g clip-path="url(#clip0_3_82)">
<g clip-path="url(#clip1_3_82)">
<path d="M14.2262 19.1616L17.6228 25.3781H11.3206L8.45271 20.0655H5.73576V25.3781H0V6.5462H10.4904C14.83 6.5462 17.5851 8.9547 17.5851 13.286C17.5851 16.0732 16.3021 18.0697 14.2262 19.1616ZM5.73576 11.4405V15.1692H9.81118C11.0187 15.1692 11.7734 14.4536 11.7734 13.286C11.7734 12.1185 11.0187 11.4405 9.81118 11.4405H5.73576ZM35.849 26.77L18.6794 22.1374L23.2831 5L31.8679 7.31632L40.4526 9.63264L35.849 26.77ZM32.6037 14.1523L27.8113 12.8341L26.5284 17.6174L31.3207 18.936L32.6037 14.1523ZM60.1133 20.0655C60.1133 23.6812 57.8115 25.3781 54.2265 25.3781H42.9815V6.5462H53.8493C57.4339 6.5462 59.7357 8.39172 59.7357 11.6308C59.7357 13.6646 58.9812 15.0209 57.5471 15.9625C59.17 16.6758 60.1133 18.1074 60.1133 20.0655ZM48.5662 11.0659V13.853H52.2998C53.3187 13.853 53.9227 13.401 53.9227 12.4218C53.9227 11.5178 53.3187 11.0659 52.2998 11.0659H48.5662ZM48.5662 20.8584H52.7548C53.7361 20.8584 54.304 20.3312 54.304 19.4268C54.304 18.4479 53.7379 17.996 52.7548 17.996H48.5662V20.8584ZM62.9434 6.5462H68.6782V19.8023H76.9047V25.3781H62.9427L62.9434 6.5462ZM97.9997 15.9625C97.9997 17.8993 97.4245 19.7926 96.3463 21.403C95.2684 23.0134 93.7359 24.2685 91.9434 25.0097C90.1505 25.7509 88.1777 25.9448 86.2746 25.567C84.3715 25.1891 82.6232 24.2565 81.2511 22.8869C79.879 21.5174 78.9446 19.7725 78.5659 17.873C78.1875 15.9734 78.3819 14.0044 79.1242 12.2151C79.8668 10.4257 81.1243 8.89632 82.7379 7.8203C84.3512 6.74428 86.248 6.16996 88.1888 6.16996C89.4776 6.1674 90.7545 6.41888 91.946 6.90997C93.137 7.40106 94.2197 8.1221 95.1312 9.03173C96.0428 9.94136 96.7655 11.0217 97.2578 12.2107C97.7501 13.3997 98.0023 14.674 97.9997 15.9605V15.9625ZM92.2642 15.9625C92.2642 13.627 90.4149 11.7815 88.1888 11.7815C85.9623 11.7815 84.113 13.627 84.113 15.9625C84.113 18.2981 85.9623 20.1432 88.1888 20.1432C90.4149 20.1432 92.2642 18.2953 92.2642 15.9605V15.9625ZM111.811 15.6608L118 25.3781H111.168L107.773 19.8395L104.264 25.3781H97.3205L103.773 15.8864L97.8489 6.5462H104.679L107.811 11.6308L110.83 6.5462H117.622L111.811 15.6608Z" fill="white"/>
</g>
</g>
<defs>
<clipPath id="clip0_3_82">
<rect width="118" height="30" fill="white" transform="translate(0 5)"/>
</clipPath>
<clipPath id="clip1_3_82">
<rect width="118" height="22.125" fill="white" transform="translate(0 5)"/>
</clipPath>
</defs>
</svg>
